<?xml version="1.0" standalone="no"?>
<!-- Generator: Adobe Fireworks 10, Export SVG Extension by Aaron Beall (http://fireworks.abeall.com) . Version: 0.6.1  -->
<!DOCTYPE svg PUBLIC "-//W3C//DTD SVG 1.1//EN" "http://www.w3.org/Graphics/SVG/1.1/DTD/svg11.dtd">
<svg id="Untitled-P%E1gina%201" viewBox="0 0 156 50" style="background-color:#ffffff00" version="1.1"
	xmlns="http://www.w3.org/2000/svg" xmlns:xlink="http://www.w3.org/1999/xlink" xml:space="preserve"
	x="0px" y="0px" width="156px" height="50px"
>
	<g id="Capa%201">
		<g>
			<path d="M 66.8844 15.4496 C 67.4038 15.4496 67.862 15.511 68.2591 15.6027 L 68.2591 14.2423 C 67.8008 14.1185 67.251 14.0256 66.64 14.0256 C 65.5402 14.0256 62.2409 14.0565 62.2409 18.8998 L 62.2409 20.243 L 59.8886 20.243 L 59.8886 21.3531 L 62.2409 21.3531 L 62.2409 34.4079 L 63.7683 34.4079 L 63.7683 21.3531 L 68.1675 21.3531 L 68.1675 20.243 L 63.7683 20.243 L 63.7683 18.8998 C 63.7683 15.4496 65.6624 15.4496 66.8844 15.4496 L 66.8844 15.4496 Z" fill="#ffffff"/>
			<path d="M 70.1296 17.324 L 71.8098 17.324 L 71.8098 15.1238 L 70.1296 15.1238 L 70.1296 17.324 L 70.1296 17.324 ZM 70.2848 34.4079 L 71.6545 34.4079 L 71.6545 20.1681 L 70.2848 20.1681 L 70.2848 34.4079 L 70.2848 34.4079 Z" fill="#ffffff"/>
			<path d="M 82.0156 19.7578 C 79.2293 19.7578 76.8445 20.7687 75.8057 21.3049 L 75.8057 34.4079 L 77.3026 34.4079 L 77.3026 22.1647 C 78.5179 21.6904 80.1186 21.2445 81.8674 21.2445 C 85.2169 21.2445 86.1064 22.9354 86.1064 25.0401 L 86.1064 34.4079 L 87.6339 34.4079 L 87.6339 25.0401 C 87.6339 21.5421 85.5429 19.7578 82.0156 19.7578 L 82.0156 19.7578 Z" fill="#ffffff"/>
			<path d="M 91.2941 27.1527 C 91.2941 33.8247 95.2848 34.8462 97.7184 34.8462 C 102.9997 34.8462 103.519 31.3824 103.519 30.2725 L 103.519 14.4074 L 102.0221 14.4074 L 102.0221 20.4416 C 100.7752 19.9772 99.3803 19.7296 97.9261 19.7296 C 94.8396 19.7296 91.2941 21.0608 91.2941 27.1527 L 91.2941 27.1527 ZM 92.8216 27.1527 C 92.8216 22.683 94.7803 21.1537 97.9261 21.1537 C 99.3803 21.1537 100.8049 21.4531 102.0221 21.9631 L 102.0221 30.3325 C 102.0221 31.8623 100.9236 33.4223 97.7184 33.4223 C 95.6706 33.4223 92.8216 32.7323 92.8216 27.1527 L 92.8216 27.1527 Z" fill="#ffffff"/>
			<path d="M 107.9284 23.8013 C 107.9284 21.9072 109.6219 21.185 111.5573 21.185 C 113.1299 21.185 114.4302 21.6367 115.3746 22.0876 L 115.3746 20.6201 C 114.3092 20.174 112.9786 19.7578 111.4061 19.7578 C 107.8368 19.7578 106.401 21.7269 106.401 23.8013 C 106.401 28.9419 114.7331 26.4467 114.7331 30.8058 C 114.7331 32.5195 113.0996 33.3612 110.8618 33.3612 C 109.1986 33.3612 107.6535 32.9103 106.3093 32.2188 L 106.3093 33.7775 C 107.4702 34.3424 108.9869 34.8182 110.9223 34.8182 C 114.4302 34.8182 116.2606 33.1507 116.2606 30.8058 C 116.2606 25.154 107.9284 27.3486 107.9284 23.8013 L 107.9284 23.8013 Z" fill="#ffffff"/>
			<path d="M 125.1528 19.7446 C 119.449 19.7446 118.7255 25.1937 118.7255 27.3637 C 118.7255 33.4207 122.3078 34.8182 125.5677 34.8182 C 127.1976 34.8182 129.035 34.5207 130.3776 33.8963 L 130.3776 32.3007 C 129.1832 33.0061 127.4347 33.391 125.6862 33.391 C 122.9005 33.391 120.9446 32.2365 120.5297 29.2223 C 120.3815 28.8376 120.2926 28.3886 120.263 27.8431 L 131.3421 27.8431 C 131.3421 27.8179 131.3725 27.7422 131.3725 27.1871 C 131.3725 26.3185 131.312 19.7446 125.1528 19.7446 L 125.1528 19.7446 ZM 125.0639 21.1685 C 129.6573 21.1685 129.8349 26.0225 129.8349 26.7328 L 120.263 26.7328 C 120.4111 23.2403 121.9522 21.1685 125.0639 21.1685 L 125.0639 21.1685 Z" fill="#ffffff"/>
			<path d="M 139.7117 19.7578 C 138.0221 19.7578 136.4862 20.0849 135.3803 20.4417 L 135.3803 21.891 C 136.0868 21.6758 137.6842 21.2147 139.6195 21.2147 C 142.9986 21.2147 144.5345 22.7824 144.5345 25.92 C 144.043 25.8271 142.9679 25.6105 140.9711 25.6105 C 139.5888 25.6105 133.8527 25.7962 133.8527 30.3899 C 133.8527 34.2108 138.1143 34.7043 140.0496 34.7043 C 141.9234 34.7043 146.0623 34.2849 146.0623 30.4503 L 146.0623 25.951 C 146.0623 21.891 144.1352 19.7578 139.7117 19.7578 L 139.7117 19.7578 ZM 144.5654 30.4503 C 144.5654 33.1104 141.862 33.5941 140.0496 33.5941 C 138.2064 33.5941 135.3496 33.0801 135.3496 30.3899 C 135.3496 27.4578 138.913 27.0346 140.7868 27.0346 C 142.8143 27.0346 144.1659 27.2462 144.5654 27.3067 L 144.5654 30.4503 L 144.5654 30.4503 Z" fill="#ffffff"/>
			<path d="M 154.1977 33.4223 C 152.823 33.4223 151.6621 32.972 151.6621 30.9905 L 151.6621 21.3531 L 155.939 21.3531 L 155.939 20.243 L 151.6621 20.243 L 151.6621 16.1696 L 150.1345 16.1696 L 150.1345 20.243 L 147.7517 20.243 L 147.7517 21.3531 L 150.1345 21.3531 L 150.1345 31.0506 C 150.1345 34.7225 152.884 34.8462 154.0143 34.8462 C 154.7475 34.8462 155.4196 34.7225 156 34.5677 L 156 33.1221 C 155.4807 33.3022 154.9002 33.4223 154.1977 33.4223 L 154.1977 33.4223 Z" fill="#ffffff"/>
		</g>
		<g>
			<path d="M 48.0536 25.0004 C 48.0536 37.7448 37.7268 48.0769 24.988 48.0769 C 12.2494 48.0769 1.9226 37.7448 1.9226 25.0004 C 1.9226 12.2551 12.2494 1.9231 24.988 1.9231 C 37.7268 1.9231 48.0536 12.2551 48.0536 25.0004 Z" stroke="#ffffff" stroke-width="2" fill="none"/>
			<path id="silla%202" d="M 13.1888 14.8169 C 12.256 15.0366 12.6418 16.326 12.6418 16.326 L 16.0915 26.4236 L 17.7596 33.7412 C 17.8974 34.3315 18.4821 34.9049 19.0654 35.0219 L 26.4022 37.1528 C 26.4022 37.1528 26.8265 37.197 27.2597 37.0137 C 27.6931 36.8304 27.9712 36.4891 27.9712 36.4891 C 27.9712 36.4891 30.4741 29.3183 30.4126 28.9136 C 30.245 27.8106 30.124 26.978 28.0688 26.7417 L 19.8624 25.4396 C 19.8624 25.4396 19.1453 25.1191 18.9585 24.7571 C 18.9585 24.7571 16.4213 18.1372 15.8542 16.938 C 15.4313 16.044 15.5765 15.4985 16.3742 15.3423 C 16.3742 15.3423 22.3052 13.562 22.8046 13.5714 C 23.6932 13.2573 23.9829 14.1517 23.9829 14.1517 L 26.6639 20.4177 C 26.6639 20.4177 27.2041 21.051 27.5735 21.1029 C 27.8914 21.1478 36.1442 21.6827 36.1527 21.6828 C 38.3822 21.8553 37.6375 23.567 37.6375 23.567 L 34.8601 30.8608 L 35.5981 30.3843 C 36.0228 29.9597 36.5441 29.1578 36.7623 28.5933 L 38.8921 22.969 C 38.8921 22.969 39.5882 20.808 36.2932 20.7512 C 36.2932 20.7512 28.9882 20.2983 28.3676 20.1466 C 27.9873 20.0537 27.3815 19.4615 27.3815 19.4615 L 24.3115 13.022 C 24.3115 13.022 23.9155 12.1829 23.0534 12.4499 C 23.0534 12.4499 14.8114 14.4346 13.1888 14.8169 Z" fill="#e6e6e6"/>
			<path d="M 26.0337 37.0879 C 26.0337 37.0879 27.756 37.2528 28.1865 35.989 C 28.6171 34.7253 30.3393 29.6154 30.3393 29.6154 C 30.3393 29.6154 31.2004 27.1429 28.6171 26.7582 C 26.0337 26.3736 20.4366 25.4396 20.4366 25.4396 C 20.4366 25.4396 19.1987 25.3846 18.7143 24.1209 C 18.2299 22.8571 15.9157 17.0879 15.9157 17.0879 C 15.9157 17.0879 15.1622 15.6593 16.3462 15.3297 C 17.5303 15 22.5893 13.5714 22.5893 13.5714 C 22.5893 13.5714 23.5042 13.1868 23.881 14.011 C 24.2577 14.8352 26.249 19.5055 26.249 19.5055 C 26.249 19.5055 26.7851 21.0167 28.0027 21.1994 C 30.2412 21.5355 36.0297 21.6792 36.0297 21.6792 C 36.0297 21.6792 38.2619 21.7249 37.6587 23.4615 C 37.107 25.0502 35.0754 30.4945 35.0754 30.4945 C 35.0754 30.4945 36.0442 30.4945 36.5824 29.1758 C 37.1206 27.8571 38.9504 23.022 38.9504 23.022 C 38.9504 23.022 39.4185 21.1406 37.4051 20.8796 C 34.9283 20.5585 29.0476 20.3846 29.0476 20.3846 C 29.0476 20.3846 27.7021 20.2747 27.3254 19.5055 C 26.9487 18.7363 24.7433 13.9433 24.7433 13.9433 C 24.7433 13.9433 24.4204 12.4597 22.8058 12.8444 C 21.1912 13.229 15.0093 14.937 15.0093 14.937 C 15.0093 14.937 14.1482 15.2117 14.3635 16.0359 L 17.6379 24.5604 C 17.6379 24.5604 18.2299 25.9341 19.1448 26.3187 C 20.0598 26.7033 27.756 27.8571 27.756 27.8571 C 27.756 27.8571 29.3167 28.2967 28.8323 29.8352 C 28.348 31.3736 27.3254 35.1099 27.3254 35.1099 C 27.3254 35.1099 26.8927 37.1384 26.0337 37.0879 Z" fill="#ffffff"/>
		</g>
	</g>
</svg>