<?xml version="1.0" standalone="no"?>
<!-- Generator: Adobe Fireworks 10, Export SVG Extension by Aaron Beall (http://fireworks.abeall.com) . Version: 0.6.1  -->
<!DOCTYPE svg PUBLIC "-//W3C//DTD SVG 1.1//EN" "http://www.w3.org/Graphics/SVG/1.1/DTD/svg11.dtd">
<svg id="Untitled-P%E1gina%201" viewBox="0 0 168 52" style="background-color:#ffffff00" version="1.1"
	xmlns="http://www.w3.org/2000/svg" xmlns:xlink="http://www.w3.org/1999/xlink" xml:space="preserve"
	x="0px" y="0px" width="168px" height="52px"
>
	<defs>
		<radialGradient id="gradient1" cx="-0.3755%" cy="74.5695%" r="73.0154%">
			<stop stop-color="#ff3527" stop-opacity="0" offset="0%"/>
			<stop stop-color="#8c0b00" stop-opacity="0.298" offset="100%"/>
		</radialGradient>
	</defs>
	<g id="Capa%201">
		<g>
			<path d="M 71.4102 15.6538 C 71.9731 15.6538 72.4698 15.7203 72.9002 15.8196 L 72.9002 14.3458 C 72.4035 14.2117 71.8076 14.1111 71.1453 14.1111 C 69.9533 14.1111 66.3773 14.1445 66.3773 19.3914 L 66.3773 20.8466 L 63.8276 20.8466 L 63.8276 22.0492 L 66.3773 22.0492 L 66.3773 36.1918 L 68.0327 36.1918 L 68.0327 22.0492 L 72.8009 22.0492 L 72.8009 20.8466 L 68.0327 20.8466 L 68.0327 19.3914 C 68.0327 15.6538 70.0857 15.6538 71.4102 15.6538 L 71.4102 15.6538 Z" fill="#ffffff"/>
			<path d="M 74.9276 17.6844 L 76.7487 17.6844 L 76.7487 15.3008 L 74.9276 15.3008 L 74.9276 17.6844 L 74.9276 17.6844 ZM 75.0958 36.1918 L 76.5803 36.1918 L 76.5803 20.7654 L 75.0958 20.7654 L 75.0958 36.1918 L 75.0958 36.1918 Z" fill="#ffffff"/>
			<path d="M 87.8105 20.321 C 84.7905 20.321 82.2056 21.4161 81.0797 21.997 L 81.0797 36.1918 L 82.7022 36.1918 L 82.7022 22.9284 C 84.0194 22.4146 85.7543 21.9315 87.6498 21.9315 C 91.2802 21.9315 92.2444 23.7634 92.2444 26.0435 L 92.2444 36.1918 L 93.8999 36.1918 L 93.8999 26.0435 C 93.8999 22.2539 91.6336 20.321 87.8105 20.321 L 87.8105 20.321 Z" fill="#ffffff"/>
			<path d="M 97.8672 28.3321 C 97.8672 35.5601 102.1925 36.6667 104.8303 36.6667 C 110.5545 36.6667 111.1174 32.9142 111.1174 31.7119 L 111.1174 14.5247 L 109.4949 14.5247 L 109.4949 21.0618 C 108.1434 20.5586 106.6316 20.2904 105.0554 20.2904 C 101.7101 20.2904 97.8672 21.7325 97.8672 28.3321 L 97.8672 28.3321 ZM 99.5227 28.3321 C 99.5227 23.4899 101.6457 21.8332 105.0554 21.8332 C 106.6316 21.8332 108.1756 22.1575 109.4949 22.71 L 109.4949 31.7769 C 109.4949 33.4342 108.3043 35.1242 104.8303 35.1242 C 102.6107 35.1242 99.5227 34.3767 99.5227 28.3321 L 99.5227 28.3321 Z" fill="#ffffff"/>
			<path d="M 115.8966 24.7014 C 115.8966 22.6495 117.7322 21.8671 119.8298 21.8671 C 121.5343 21.8671 122.9437 22.3565 123.9673 22.8449 L 123.9673 21.2551 C 122.8126 20.7718 121.3704 20.321 119.666 20.321 C 115.7973 20.321 114.2411 22.4541 114.2411 24.7014 C 114.2411 30.2704 123.272 27.5673 123.272 32.2897 C 123.272 34.1461 121.5015 35.058 119.076 35.058 C 117.2733 35.058 115.5986 34.5695 114.1417 33.8204 L 114.1417 35.509 C 115.4 36.121 117.0439 36.6363 119.1416 36.6363 C 122.9437 36.6363 124.9276 34.83 124.9276 32.2897 C 124.9276 26.1668 115.8966 28.5443 115.8966 24.7014 L 115.8966 24.7014 Z" fill="#ffffff"/>
			<path d="M 134.5656 20.3066 C 128.3834 20.3066 127.5993 26.2099 127.5993 28.5607 C 127.5993 35.1224 131.482 36.6363 135.0153 36.6363 C 136.782 36.6363 138.7735 36.3141 140.2286 35.6377 L 140.2286 33.9091 C 138.934 34.6733 137.0389 35.0902 135.1438 35.0902 C 132.1245 35.0902 130.0045 33.8396 129.5548 30.5742 C 129.3942 30.1574 129.2978 29.671 129.2657 29.08 L 141.274 29.08 C 141.274 29.0527 141.307 28.9707 141.307 28.3693 C 141.307 27.4284 141.2414 20.3066 134.5656 20.3066 L 134.5656 20.3066 ZM 134.4692 21.8492 C 139.4479 21.8492 139.6404 27.1078 139.6404 27.8772 L 129.2657 27.8772 C 129.4263 24.0937 131.0966 21.8492 134.4692 21.8492 L 134.4692 21.8492 Z" fill="#ffffff"/>
			<path d="M 150.3456 20.321 C 148.5143 20.321 146.8495 20.6753 145.6509 21.0618 L 145.6509 22.6319 C 146.4167 22.3988 148.148 21.8993 150.2456 21.8993 C 153.9081 21.8993 155.5729 23.5976 155.5729 26.9967 C 155.0402 26.8961 153.8748 26.6614 151.7107 26.6614 C 150.2124 26.6614 143.9952 26.8625 143.9952 31.8391 C 143.9952 35.9784 148.6142 36.513 150.7118 36.513 C 152.7428 36.513 157.2288 36.0586 157.2288 31.9045 L 157.2288 27.0303 C 157.2288 22.6319 155.1401 20.321 150.3456 20.321 L 150.3456 20.321 ZM 155.6063 31.9045 C 155.6063 34.7863 152.6762 35.3102 150.7118 35.3102 C 148.7141 35.3102 145.6176 34.7535 145.6176 31.8391 C 145.6176 28.6626 149.4799 28.2041 151.5109 28.2041 C 153.7084 28.2041 155.1733 28.4334 155.6063 28.4989 L 155.6063 31.9045 L 155.6063 31.9045 Z" fill="#ffffff"/>
			<path d="M 166.0465 35.1242 C 164.5565 35.1242 163.2982 34.6363 163.2982 32.4897 L 163.2982 22.0492 L 167.9338 22.0492 L 167.9338 20.8466 L 163.2982 20.8466 L 163.2982 16.4337 L 161.6426 16.4337 L 161.6426 20.8466 L 159.0599 20.8466 L 159.0599 22.0492 L 161.6426 22.0492 L 161.6426 32.5548 C 161.6426 36.5327 164.6227 36.6667 165.8477 36.6667 C 166.6425 36.6667 167.371 36.5327 168 36.365 L 168 34.799 C 167.4372 34.9941 166.808 35.1242 166.0465 35.1242 L 166.0465 35.1242 Z" fill="#ffffff"/>
		</g>
		<g>
			<path d="M 51 26.0004 C 51 39.8069 39.8072 51 25.9998 51 C 12.1929 51 1 39.8069 1 26.0004 C 1 12.193 12.1929 1 25.9998 1 C 39.8072 1 51 12.193 51 26.0004 Z" stroke="#ffffff" stroke-width="2" fill="none"/>
			<path d="M 28.6781 38.987 C 31.796 36.7861 22.4799 30.4372 22.4799 30.4372 C 22.4799 30.4372 0.9429 25.7424 1.1069 27.1905 C 2.4427 38.987 7.2516 42.2338 7.2516 42.2338 L 28.6781 38.987 Z" fill="url(#gradient1)"/>
			<path id="silla%202" d="M 13.2111 14.9683 C 12.2 15.2063 12.6183 16.6031 12.6183 16.6031 L 16.3573 27.5423 L 18.1652 35.4696 C 18.3146 36.1092 18.9484 36.7303 19.5806 36.8571 L 27.5327 39.1655 C 27.5327 39.1655 27.9926 39.2134 28.4622 39.0148 C 28.9318 38.8163 29.2333 38.4465 29.2333 38.4465 C 29.2333 38.4465 31.9461 30.6781 31.8794 30.2397 C 31.6978 29.0448 31.5667 28.1429 29.3391 27.8868 L 20.4445 26.4762 C 20.4445 26.4762 19.6671 26.129 19.4647 25.7368 C 19.4647 25.7368 16.7147 18.5653 16.1 17.2662 C 15.6417 16.2976 15.799 15.7067 16.6637 15.5375 C 16.6637 15.5375 23.0921 13.6089 23.6334 13.619 C 24.5965 13.2787 24.9105 14.2477 24.9105 14.2477 L 27.8164 21.0358 C 27.8164 21.0358 28.4018 21.7219 28.8022 21.7782 C 29.1468 21.8268 38.0918 22.4062 38.101 22.4063 C 40.5175 22.5933 39.7103 24.4476 39.7103 24.4476 L 36.7 32.3492 L 37.4999 31.833 C 37.9602 31.373 38.5252 30.5043 38.7617 29.8927 L 41.0701 23.7997 C 41.0701 23.7997 41.8246 21.4586 38.2533 21.3971 C 38.2533 21.3971 30.3356 20.9065 29.6629 20.7422 C 29.2508 20.6415 28.5941 20 28.5941 20 L 25.2667 13.0238 C 25.2667 13.0238 24.8375 12.1148 23.903 12.4041 C 23.903 12.4041 14.9697 14.5541 13.2111 14.9683 Z" fill="#e6e6e6"/>
			<path d="M 27.1333 39.0952 C 27.1333 39.0952 29 39.2738 29.4667 37.9048 C 29.9333 36.5357 31.8 31 31.8 31 C 31.8 31 32.7334 28.3214 29.9333 27.9047 C 27.1333 27.4881 21.0667 26.4762 21.0667 26.4762 C 21.0667 26.4762 19.725 26.4167 19.2 25.0476 C 18.675 23.6786 16.1667 17.4286 16.1667 17.4286 C 16.1667 17.4286 15.35 15.8809 16.6333 15.5238 C 17.9167 15.1667 23.4 13.619 23.4 13.619 C 23.4 13.619 24.3917 13.2024 24.8 14.0952 C 25.2083 14.9881 27.3667 20.0476 27.3667 20.0476 C 27.3667 20.0476 27.9477 21.6847 29.2674 21.8827 C 31.6937 22.2467 37.9677 22.4025 37.9677 22.4025 C 37.9677 22.4025 40.3871 22.452 39.7333 24.3333 C 39.1353 26.0544 36.9334 31.9524 36.9334 31.9524 C 36.9334 31.9524 37.9834 31.9524 38.5667 30.5238 C 39.15 29.0952 41.1333 23.8571 41.1333 23.8571 C 41.1333 23.8571 41.6407 21.819 39.4584 21.5362 C 36.7739 21.1884 30.4 21 30.4 21 C 30.4 21 28.9417 20.881 28.5333 20.0476 C 28.125 19.2143 25.7347 14.0219 25.7347 14.0219 C 25.7347 14.0219 25.3846 12.4147 23.6346 12.8314 C 21.8846 13.2481 15.1843 15.0984 15.1843 15.0984 C 15.1843 15.0984 14.2509 15.396 14.4843 16.2889 L 18.0334 25.5238 C 18.0334 25.5238 18.675 27.0119 19.6667 27.4286 C 20.6583 27.8452 29 29.0952 29 29.0952 C 29 29.0952 30.6917 29.5714 30.1667 31.2381 C 29.6417 32.9048 28.5333 36.9524 28.5333 36.9524 C 28.5333 36.9524 28.0644 39.1499 27.1333 39.0952 Z" fill="#ffffff"/>
		</g>
	</g>
</svg>