<?xml version="1.0" standalone="no"?>
<!-- Generator: Adobe Fireworks 10, Export SVG Extension by Aaron Beall (http://fireworks.abeall.com) . Version: 0.6.1  -->
<!DOCTYPE svg PUBLIC "-//W3C//DTD SVG 1.1//EN" "http://www.w3.org/Graphics/SVG/1.1/DTD/svg11.dtd">
<svg id="Untitled-P%E1gina%201" viewBox="0 0 43 43" style="background-color:#ffffff00" version="1.1"
	xmlns="http://www.w3.org/2000/svg" xmlns:xlink="http://www.w3.org/1999/xlink" xml:space="preserve"
	x="0px" y="0px" width="43px" height="43px"
>
	<g id="Capa%201">
		<g>
			<path id="Ellipse" d="M 0.4015 21.6931 C 0.4015 10.1628 9.7484 0.8159 21.2788 0.8159 C 32.8091 0.8159 42.1561 10.1628 42.1561 21.6931 C 42.1561 33.2235 32.8091 42.5704 21.2788 42.5704 C 9.7484 42.5704 0.4015 33.2235 0.4015 21.6931 Z" fill="#eeeeee"/>
			<g>
				<path d="M 18.677 23.1709 C 17.4703 22.7974 14.6377 21.7313 14.6377 22.8171 L 14.6377 22.8171 C 14.0493 23.0225 13.5288 23.6689 13.4752 24.2609 C 13.4752 24.2609 13.2899 24.9678 13.0836 25.7544 C 12.7799 26.9129 13.3157 28.5168 14.4924 28.9053 C 16.1919 29.4664 18.738 30 21.0669 30 C 23.377 30 25.8553 29.475 27.5166 28.9189 C 28.6909 28.5258 29.2195 26.9129 28.9156 25.7544 C 28.7095 24.9678 28.5242 24.2609 28.5242 24.2609 C 28.4706 23.6689 27.9501 23.0225 27.3616 22.8171 C 27.3616 21.7313 24.5289 22.7975 23.3224 23.1709 C 22.5894 23.3978 21.8088 23.52 20.9996 23.52 C 20.1906 23.52 19.41 23.3978 18.677 23.1709 Z" fill="#bbbbbb"/>
				<path id="Ellipse2" d="M 16.1632 16.6262 C 16.1632 14.0712 18.3494 12 21.046 12 C 23.7428 12 25.929 14.0712 25.929 16.6262 C 25.929 19.1812 23.7428 21.2524 21.046 21.2524 C 18.3494 21.2524 16.1632 19.1812 16.1632 16.6262 Z" fill="#bbbbbb"/>
			</g>
		</g>
	</g>
</svg>