<?xml version="1.0" standalone="no"?>
<!-- Generator: Adobe Fireworks 10, Export SVG Extension by Aaron Beall (http://fireworks.abeall.com) . Version: 0.6.1  -->
<!DOCTYPE svg PUBLIC "-//W3C//DTD SVG 1.1//EN" "http://www.w3.org/Graphics/SVG/1.1/DTD/svg11.dtd">
<svg id="Untitled-P%E1gina%201" viewBox="0 0 14 16" style="background-color:#ffffff00" version="1.1"
	xmlns="http://www.w3.org/2000/svg" xmlns:xlink="http://www.w3.org/1999/xlink" xml:space="preserve"
	x="0px" y="0px" width="14px" height="16px"
>
	<g id="Capa%201">
		<path d="M 0 4.5406 L 0 15.3536 C 0 15.7106 0.2754 16 0.615 16 L 13.385 16 C 13.7244 16 14 15.7106 14 15.3536 L 14 4.5406 L 0 4.5406 ZM 3.5676 14.7677 L 1.1182 14.7677 L 1.1182 12.2159 L 3.5676 12.2159 L 3.5676 14.7677 ZM 3.5676 11.5895 L 1.1182 11.5895 L 1.1182 9.0372 L 3.5676 9.0372 L 3.5676 11.5895 ZM 3.5676 8.3675 L 1.1182 8.3675 L 1.1182 5.8154 L 3.5676 5.8154 L 3.5676 8.3675 ZM 6.6406 14.7677 L 4.1917 14.7677 L 4.1917 12.2159 L 6.6406 12.2159 L 6.6406 14.7677 ZM 6.6406 11.5895 L 4.1917 11.5895 L 4.1917 9.0372 L 6.6406 9.0372 L 6.6406 11.5895 ZM 6.6406 8.3675 L 4.1917 8.3675 L 4.1917 5.8154 L 6.6406 5.8154 L 6.6406 8.3675 ZM 9.7141 14.7677 L 7.265 14.7677 L 7.265 12.2159 L 9.7141 12.2159 L 9.7141 14.7677 ZM 9.7141 11.5895 L 7.265 11.5895 L 7.265 9.0372 L 9.7141 9.0372 L 9.7141 11.5895 ZM 9.7141 8.3675 L 7.265 8.3675 L 7.265 5.8154 L 9.7141 5.8154 L 9.7141 8.3675 ZM 12.7874 14.7677 L 10.3385 14.7677 L 10.3385 12.2159 L 12.7874 12.2159 L 12.7874 14.7677 ZM 12.7874 11.5895 L 10.3385 11.5895 L 10.3385 9.0372 L 12.7874 9.0372 L 12.7874 11.5895 ZM 12.7874 8.3675 L 10.3385 8.3675 L 10.3385 5.8154 L 12.7874 5.8154 L 12.7874 8.3675 ZM 13.385 1.955 L 10.9619 1.955 L 10.9619 0 L 9.7681 0 L 9.7681 1.955 L 4.2319 1.955 L 4.2319 0 L 3.0386 0 L 3.0386 1.955 L 0.615 1.955 C 0.2754 1.955 0 2.2448 0 2.6013 L 0 3.6537 L 14 3.6537 L 14 2.6013 C 14 2.2448 13.7244 1.955 13.385 1.955 Z" fill="#000000"/>
	</g>
</svg>