<?xml version="1.0" standalone="no"?>
<!-- Generator: Adobe Fireworks 10, Export SVG Extension by Aaron Beall (http://fireworks.abeall.com) . Version: 0.6.1  -->
<!DOCTYPE svg PUBLIC "-//W3C//DTD SVG 1.1//EN" "http://www.w3.org/Graphics/SVG/1.1/DTD/svg11.dtd">
<svg id="Untitled-P%E1gina%201" viewBox="0 0 14 14" style="background-color:#ffffff00" version="1.1"
	xmlns="http://www.w3.org/2000/svg" xmlns:xlink="http://www.w3.org/1999/xlink" xml:space="preserve"
	x="0px" y="0px" width="14px" height="14px"
>
	<g id="Capa%201">
		<g id="clock">
			<path d="M 7 0 C 3.1403 0 0 3.1399 0 7 C 0 10.8601 3.1403 14 7 14 C 10.8597 14 14 10.8601 14 7 C 14 3.1399 10.8597 0 7 0 ZM 10.8982 10.5042 L 10.4396 10.0457 C 10.3166 10.1848 10.1847 10.3162 10.0454 10.4397 L 10.504 10.8982 C 9.6415 11.6743 8.5239 12.1667 7.2917 12.2351 L 7.2917 11.5886 C 7.2917 11.5955 7.09 11.5986 7 11.5986 C 6.91 11.5986 6.7083 11.5955 6.7083 11.5886 L 6.7083 12.2351 C 5.4761 12.1667 4.3585 11.6743 3.496 10.8982 L 3.9546 10.4397 C 3.8153 10.3162 3.6837 10.1848 3.5604 10.0457 L 3.1018 10.5042 C 2.3256 9.6418 1.8329 8.5239 1.7648 7.2917 L 2.4117 7.2917 C 2.4045 7.2917 2.4014 7.0901 2.4014 7 C 2.4014 6.9099 2.4045 6.7083 2.4117 6.7083 L 1.7648 6.7083 C 1.8329 5.4761 2.3256 4.3582 3.1018 3.4958 L 3.5604 3.9543 C 3.6837 3.8152 3.8153 3.6838 3.9546 3.5603 L 3.496 3.1018 C 4.3585 2.3257 5.4761 1.8333 6.7083 1.7649 L 6.7083 2.4114 C 6.7083 2.4045 6.91 2.4014 7 2.4014 C 7.09 2.4014 7.2917 2.4045 7.2917 2.4114 L 7.2917 1.7649 C 8.5239 1.8333 9.6415 2.3257 10.504 3.1018 L 10.0454 3.5603 C 10.1847 3.6838 10.3166 3.8152 10.4396 3.9543 L 10.8982 3.4958 C 11.6744 4.3582 12.1671 5.4761 12.2352 6.7083 L 11.5883 6.7083 C 11.5955 6.7083 11.5986 6.9099 11.5986 7 C 11.5986 7.0901 11.5955 7.2917 11.5883 7.2917 L 12.2352 7.2917 C 12.1671 8.5239 11.6744 9.6418 10.8982 10.5042 ZM 10.0366 4.4041 C 10.15 4.5173 10.15 4.7034 10.0366 4.8167 L 8.1299 6.7244 C 8.1519 6.8137 8.1667 6.9075 8.1667 7.0034 C 8.1667 7.6477 7.6446 8.1736 7 8.1736 C 6.5634 8.1736 6.1877 7.875 5.9874 7.5833 L 4.375 7.5833 C 4.2147 7.5833 4.0833 7.438 4.0833 7.2776 L 4.0833 6.7224 C 4.0833 6.562 4.2147 6.4167 4.375 6.4167 L 5.9874 6.4167 C 6.1877 6.125 6.5634 5.8264 7 5.8264 C 7.1154 5.8264 7.2247 5.8552 7.3298 5.8862 L 9.2188 3.9978 C 9.3322 3.8845 9.5179 3.8845 9.6313 3.9978 L 10.0366 4.4041 Z" fill="#000000"/>
		</g>
	</g>
</svg>