<?xml version="1.0" standalone="no"?>
<!-- Generator: Adobe Fireworks 10, Export SVG Extension by Aaron Beall (http://fireworks.abeall.com) . Version: 0.6.1  -->
<!DOCTYPE svg PUBLIC "-//W3C//DTD SVG 1.1//EN" "http://www.w3.org/Graphics/SVG/1.1/DTD/svg11.dtd">
<svg id="Untitled-P%E1gina%201" viewBox="0 0 12 12" style="background-color:#ffffff00" version="1.1"
	xmlns="http://www.w3.org/2000/svg" xmlns:xlink="http://www.w3.org/1999/xlink" xml:space="preserve"
	x="0px" y="0px" width="12px" height="12px"
>
	<g id="Capa%201">
		<path d="M 2.0674 5.2207 L 5.755 9.5 L 1.2305 9.5 L 1 9.5 L 0.25 9.5 C 0.1123 9.5 0 9.6123 0 9.75 L 0 11.0195 L 0 11.75 L 0 12 L 0.25 12 L 1.25 12 L 10.75 12 L 11.75 12 L 12 12 L 12 11.75 L 12 11.0195 L 12 9.75 C 12 9.6123 11.8682 9.5 11.7305 9.5 L 11.5 9.5 L 10.75 9.5 L 6.285 9.5 L 9.9717 5.2202 C 10.0508 5.1177 10.0103 5.0283 9.8804 5.0283 L 7.4951 5.0283 L 7.4951 0.2446 C 7.4951 0.1147 7.4019 0 7.2725 0 L 4.7607 0 C 4.6309 0 4.5 0.1147 4.5 0.2446 L 4.5 5.0283 L 2.1597 5.0283 C 2.0298 5.0283 1.9883 5.1182 2.0674 5.2207 Z" fill="#000000"/>
	</g>
</svg>