<?xml version="1.0" standalone="no"?>
<!-- Generator: Adobe Fireworks 10, Export SVG Extension by Aaron Beall (http://fireworks.abeall.com) . Version: 0.6.1  -->
<!DOCTYPE svg PUBLIC "-//W3C//DTD SVG 1.1//EN" "http://www.w3.org/Graphics/SVG/1.1/DTD/svg11.dtd">
<svg id="Untitled-P%E1gina%201" viewBox="0 0 18 18" style="background-color:#ffffff00" version="1.1"
	xmlns="http://www.w3.org/2000/svg" xmlns:xlink="http://www.w3.org/1999/xlink" xml:space="preserve"
	x="0px" y="0px" width="18px" height="18px"
>
	<g id="Capa%201">
		<path d="M 8.9222 0 C 3.9946 0 0 3.8451 0 8.5884 C 0 13.3317 3.9946 17.1767 8.9222 17.1767 C 13.8498 17.1767 17.8444 13.3317 17.8444 8.5884 C 17.8444 3.8451 13.8498 0 8.9222 0 ZM 11.0355 5.9349 L 9.694 5.9349 C 9.5354 5.9349 9.3586 6.1355 9.3586 6.4042 L 9.3586 7.3366 L 11.0355 7.3366 L 11.0355 8.6656 L 9.3586 8.6656 L 9.3586 12.6565 L 7.775 12.6565 L 7.775 8.6656 L 6.3395 8.6656 L 6.3395 7.3366 L 7.775 7.3366 L 7.775 6.5543 C 7.775 5.4327 8.5838 4.5203 9.694 4.5203 L 11.0355 4.5203 L 11.0355 5.9349 Z" fill="#000000"/>
	</g>
</svg>