<?xml version="1.0" standalone="no"?>
<!-- Generator: Adobe Fireworks 10, Export SVG Extension by Aaron Beall (http://fireworks.abeall.com) . Version: 0.6.1  -->
<!DOCTYPE svg PUBLIC "-//W3C//DTD SVG 1.1//EN" "http://www.w3.org/Graphics/SVG/1.1/DTD/svg11.dtd">
<svg id="Untitled-P%E1gina%201" viewBox="0 0 28 27" style="background-color:#ffffff00" version="1.1"
	xmlns="http://www.w3.org/2000/svg" xmlns:xlink="http://www.w3.org/1999/xlink" xml:space="preserve"
	x="0px" y="0px" width="28px" height="27px"
>
	<g id="Capa%201">
		<path d="M 17.9229 10.6152 L 17.9229 10.6128 C 18.1467 10.6128 18.3707 10.6171 18.5955 10.6117 C 18.8834 10.6047 19.1182 10.3622 19.1182 10.0789 C 19.1182 9.6573 19.1182 9.2351 19.1182 8.8134 C 19.1182 8.5109 18.8743 8.2708 18.5668 8.2703 C 18.1379 8.2703 17.7094 8.2699 17.2808 8.2703 C 16.974 8.2708 16.7291 8.5118 16.7291 8.8143 C 16.7291 9.2324 16.7274 9.6508 16.7308 10.0688 C 16.7308 10.1315 16.7432 10.1963 16.7632 10.2552 C 16.8407 10.4778 17.0481 10.6144 17.3025 10.6156 C 17.509 10.6156 17.7163 10.6152 17.9229 10.6152 ZM 13.7867 11.1576 C 12.2772 11.1569 11.0499 12.3491 11.0288 13.8239 C 11.0071 15.3387 12.2424 16.5389 13.7234 16.5696 C 15.2645 16.6023 16.5105 15.3938 16.5435 13.9238 C 16.5767 12.4089 15.3311 11.1569 13.7867 11.1576 ZM 8.4539 12.6023 L 8.4539 12.6381 C 8.4539 14.6149 8.4534 16.5919 8.4539 18.5686 C 8.4539 18.8529 8.7046 19.0975 8.9946 19.0975 C 12.1887 19.098 15.3826 19.098 18.5763 19.0975 C 18.8691 19.0975 19.1187 18.8538 19.1187 18.5669 C 19.1191 16.5928 19.1187 14.6174 19.1187 12.6438 L 19.1187 12.6027 L 17.8196 12.6027 C 18.0029 13.1779 18.0593 13.7633 17.9873 14.36 C 17.9155 14.9569 17.719 15.512 17.4 16.025 C 17.0812 16.5381 16.6669 16.9645 16.1602 17.3026 C 14.8472 18.1809 13.1176 18.2582 11.7234 17.4904 C 11.019 17.1025 10.4659 16.562 10.0796 15.8641 C 9.5044 14.8251 9.4126 13.7345 9.75 12.6023 C 9.3181 12.6023 8.8889 12.6023 8.4539 12.6023 ZM 19.2314 20.5439 C 19.3021 20.5326 19.3735 20.5226 19.4432 20.5076 C 19.9991 20.3918 20.4531 19.9368 20.562 19.3883 C 20.5732 19.3284 20.582 19.2686 20.592 19.2092 L 20.592 8.5205 C 20.583 8.4624 20.5742 8.4033 20.5629 8.3451 C 20.4436 7.7465 19.9404 7.282 19.323 7.1987 C 19.2969 7.1958 19.2725 7.1901 19.2472 7.1858 L 8.3269 7.1858 C 8.2611 7.1975 8.1947 7.2063 8.1299 7.2207 C 7.5269 7.3553 7.0808 7.8319 6.9946 8.4316 C 6.9912 8.4568 6.9857 8.4817 6.9818 8.5066 L 6.9818 19.2241 C 6.9943 19.2917 7.0042 19.3601 7.0198 19.4276 C 7.1531 20.0066 7.6563 20.4551 8.2555 20.5308 C 8.2839 20.5342 8.3135 20.5402 8.3423 20.5439 L 19.2314 20.5439 ZM 13.7867 27 C 6.3958 27 0.4034 21.119 0.4034 13.8649 C 0.4034 6.6104 6.3958 0.7297 13.7867 0.7297 C 21.178 0.7297 27.17 6.6104 27.17 13.8649 C 27.17 21.119 21.178 27 13.7867 27 Z" fill="#000000"/>
	</g>
</svg>