<?xml version="1.0" standalone="no"?>
<!-- Generator: Adobe Fireworks 10, Export SVG Extension by Aaron Beall (http://fireworks.abeall.com) . Version: 0.6.1  -->
<!DOCTYPE svg PUBLIC "-//W3C//DTD SVG 1.1//EN" "http://www.w3.org/Graphics/SVG/1.1/DTD/svg11.dtd">
<svg id="Untitled-P%E1gina%201" viewBox="0 0 27 27" style="background-color:#ffffff00" version="1.1"
	xmlns="http://www.w3.org/2000/svg" xmlns:xlink="http://www.w3.org/1999/xlink" xml:space="preserve"
	x="0px" y="0px" width="27px" height="27px"
>
	<g id="Capa%201">
		<path d="M 8.7556 10.1011 C 8.4731 9.9528 8.2061 9.4865 8.7246 9.4865 L 18.5088 9.4865 C 19.0277 9.4865 18.7603 9.9528 18.4779 10.1011 L 14.1407 12.3821 C 13.9951 12.4586 13.8068 12.4956 13.6167 12.4956 C 13.4266 12.4956 13.2383 12.4586 13.0927 12.3821 L 8.7556 10.1011 ZM 18.5974 11.2335 C 18.8235 11.1182 18.8213 11.2534 18.8213 11.3578 L 18.8213 16.9705 C 18.8213 17.2078 18.4984 17.5135 18.2478 17.5135 L 8.9856 17.5135 C 8.7351 17.5135 8.4121 17.2078 8.4121 16.9705 L 8.4121 11.3578 C 8.4121 11.2534 8.4102 11.1182 8.636 11.2335 L 13.0927 13.5144 C 13.2893 13.6149 13.4266 13.6279 13.6167 13.6279 C 13.8068 13.6279 13.9441 13.6149 14.1407 13.5144 L 18.5974 11.2335 ZM 13.6167 0 C 6.2247 0 0.2334 5.8807 0.2334 13.1351 C 0.2334 20.3896 6.2247 26.2703 13.6167 26.2703 C 21.0081 26.2703 27 20.3896 27 13.1351 C 27 5.8807 21.0081 0 13.6167 0 Z" fill="#000000"/>
	</g>
</svg>