<?xml version="1.0" standalone="no"?>
<!-- Generator: Adobe Fireworks 10, Export SVG Extension by Aaron Beall (http://fireworks.abeall.com) . Version: 0.6.1  -->
<!DOCTYPE svg PUBLIC "-//W3C//DTD SVG 1.1//EN" "http://www.w3.org/Graphics/SVG/1.1/DTD/svg11.dtd">
<svg id="Untitled-P%E1gina%201" viewBox="0 0 14 10" style="background-color:#ffffff00" version="1.1"
	xmlns="http://www.w3.org/2000/svg" xmlns:xlink="http://www.w3.org/1999/xlink" xml:space="preserve"
	x="0px" y="0px" width="14px" height="10px"
>
	<g id="Capa%201">
		<path d="M 2 0 C 0.8954 0 0 0.901 0 2.0126 L 0 7.9874 C 0 9.099 0.8954 10 2 10 L 12 10 C 13.1045 10 14 9.099 14 7.9874 L 14 2.0126 C 14 0.901 13.1045 0 12 0 L 2 0 ZM 11.8877 1.3747 L 7 5.3897 L 2.1123 1.3747 L 11.8877 1.3747 ZM 1.75 3.1099 L 6.6907 7.1684 C 6.8616 7.3088 7.1384 7.3088 7.3093 7.1684 L 12.25 3.1099 L 12.25 8.5624 L 1.75 8.5624 L 1.75 3.1099 Z" fill="#000000"/>
	</g>
</svg>