<?xml version="1.0" standalone="no"?>
<!-- Generator: Adobe Fireworks 10, Export SVG Extension by Aaron Beall (http://fireworks.abeall.com) . Version: 0.6.1  -->
<!DOCTYPE svg PUBLIC "-//W3C//DTD SVG 1.1//EN" "http://www.w3.org/Graphics/SVG/1.1/DTD/svg11.dtd">
<svg id="Untitled-P%E1gina%201" viewBox="0 0 14 15" style="background-color:#ffffff00" version="1.1"
	xmlns="http://www.w3.org/2000/svg" xmlns:xlink="http://www.w3.org/1999/xlink" xml:space="preserve"
	x="0px" y="0px" width="14px" height="15px"
>
	<g id="Capa%201">
		<g id="Print%201">
			<path d="M 13.125 3.75 L 11.375 3.75 L 11.375 0.9375 C 11.375 0.4193 10.9836 0 10.5 0 L 3.5 0 C 3.0164 0 2.625 0.4193 2.625 0.9375 L 2.625 3.75 L 0.875 3.75 C 0.3914 3.75 0 4.1693 0 4.6875 L 0 12.1875 C 0 12.7057 0.3914 13.125 0.875 13.125 L 2.625 13.125 L 2.625 14.0625 C 2.625 14.5807 3.0164 15 3.5 15 L 10.5 15 C 10.9836 15 11.375 14.5807 11.375 14.0625 L 11.375 13.125 L 13.125 13.125 C 13.6086 13.125 14 12.7057 14 12.1875 L 14 4.6875 C 14 4.1693 13.6086 3.75 13.125 3.75 ZM 4.375 1.875 L 9.625 1.875 L 9.625 3.75 L 4.375 3.75 L 4.375 1.875 ZM 9.625 13.125 L 4.375 13.125 L 4.375 11.25 L 9.625 11.25 L 9.625 13.125 ZM 12.25 11.25 L 11.375 11.25 L 11.375 9.375 L 2.625 9.375 L 2.625 11.25 L 1.75 11.25 L 1.75 5.625 L 12.25 5.625 L 12.25 11.25 Z" fill="#000000"/>
		</g>
	</g>
</svg>