<?xml version="1.0" standalone="no"?>
<!-- Generator: Adobe Fireworks 10, Export SVG Extension by Aaron Beall (http://fireworks.abeall.com) . Version: 0.6.1  -->
<!DOCTYPE svg PUBLIC "-//W3C//DTD SVG 1.1//EN" "http://www.w3.org/Graphics/SVG/1.1/DTD/svg11.dtd">
<svg id="Untitled-P%E1gina%201" viewBox="0 0 18 18" style="background-color:#ffffff00" version="1.1"
	xmlns="http://www.w3.org/2000/svg" xmlns:xlink="http://www.w3.org/1999/xlink" xml:space="preserve"
	x="0px" y="0px" width="18px" height="18px"
>
	<g id="Capa%201">
		<path d="M 9.0566 0 C 4.1287 0 0.1344 3.9205 0.1344 8.7568 C 0.1344 13.5931 4.1287 17.5135 9.0566 17.5135 C 13.9843 17.5135 17.9788 13.5931 17.9788 8.7568 C 17.9788 3.9205 13.9843 0 9.0566 0 ZM 12.6853 7.1737 C 12.689 7.2478 12.6904 7.3223 12.6904 7.3968 C 12.6904 9.676 10.9227 12.3042 7.6906 12.3042 C 6.6984 12.3042 5.7747 12.0185 4.9972 11.5291 C 5.1344 11.5452 5.2741 11.5533 5.416 11.5533 C 6.2394 11.5533 6.9972 11.2777 7.5986 10.8149 C 6.8298 10.801 6.1807 10.3024 5.957 9.6173 C 6.0645 9.6372 6.1745 9.6483 6.2878 9.6483 C 6.4479 9.6483 6.6032 9.6271 6.7507 9.5876 C 5.9469 9.4291 5.3409 8.7322 5.3409 7.8964 C 5.3409 7.8892 5.3409 7.882 5.3413 7.8749 C 5.578 8.004 5.8491 8.0815 6.137 8.0907 C 5.6655 7.7812 5.3555 7.2535 5.3555 6.6549 C 5.3555 6.3388 5.4419 6.0427 5.5933 5.7879 C 6.4598 6.8315 7.7549 7.518 9.2153 7.5899 C 9.1852 7.4637 9.1699 7.3319 9.1699 7.1968 C 9.1699 6.2444 9.9567 5.4722 10.9271 5.4722 C 11.4325 5.4722 11.8892 5.6818 12.2096 6.0169 C 12.6102 5.9395 12.9863 5.7961 13.3257 5.5984 C 13.1943 6.0011 12.9159 6.3392 12.5531 6.5526 C 12.9086 6.5109 13.2473 6.4183 13.5625 6.2811 C 13.3268 6.6267 13.0287 6.9307 12.6853 7.1737 Z" fill="#000000"/>
	</g>
</svg>