<?xml version="1.0" standalone="no"?>
<!-- Generator: Adobe Fireworks 10, Export SVG Extension by Aaron Beall (http://fireworks.abeall.com) . Version: 0.6.1  -->
<!DOCTYPE svg PUBLIC "-//W3C//DTD SVG 1.1//EN" "http://www.w3.org/Graphics/SVG/1.1/DTD/svg11.dtd">
<svg id="Untitled-P%E1gina%201" viewBox="0 0 18 16" style="background-color:#ffffff00" version="1.1"
	xmlns="http://www.w3.org/2000/svg" xmlns:xlink="http://www.w3.org/1999/xlink" xml:space="preserve"
	x="0px" y="0px" width="18px" height="16px"
>
	<g id="Capa%201">
		<path d="M 17.5 2.3029 C 17.2136 2.4745 16.3545 2.8166 15.5535 2.9023 C 16.0671 2.6014 16.8276 1.6163 17.0154 0.8339 C 16.5215 1.176 15.3875 1.6749 14.8271 1.6749 C 14.8271 1.6749 14.8271 1.6766 14.8281 1.6777 C 14.189 0.952 13.2905 0.5 12.2922 0.5 C 10.3562 0.5 8.7852 2.205 8.7852 4.3086 C 8.7852 4.6005 8.8174 4.8846 8.8755 5.1571 L 8.8745 5.1571 C 6.2471 5.0839 3.1758 3.6542 1.4451 1.2062 C 0.3828 3.2052 1.302 5.4277 2.5087 6.2374 C 2.0967 6.2726 1.3352 6.1866 0.9773 5.8085 C 0.9524 7.1346 1.5405 8.8925 3.6821 9.5292 C 3.2693 9.7714 2.5408 9.7023 2.2223 9.6495 C 2.3344 10.7707 3.7787 12.2355 5.3569 12.2355 C 4.7944 12.9413 2.875 14.2245 0.5 13.8154 C 2.1133 14.8826 3.9945 15.5 5.9856 15.5 C 11.6438 15.5 16.0381 10.5206 15.8015 4.3771 C 15.8015 4.3702 15.7993 4.3624 15.7993 4.3573 C 15.7993 4.34 15.8015 4.3232 15.8015 4.3086 C 15.8015 4.2892 15.7993 4.2714 15.7993 4.2511 C 16.314 3.8702 17.0051 3.1942 17.5 2.3029 Z" fill="#000000"/>
	</g>
</svg>